<?xml version="1.0" encoding="utf-8"?>
<!-- Generator: Adobe Illustrator 27.9.0, SVG Export Plug-In . SVG Version: 6.00 Build 0)  -->
<svg version="1.1" id="Layer_1" xmlns="http://www.w3.org/2000/svg" xmlns:xlink="http://www.w3.org/1999/xlink" x="0px" y="0px"
	 viewBox="0 0 544.7 543.43" style="enable-background:new 0 0 544.7 543.43;" xml:space="preserve">
<style type="text/css">
	.st0{fill:url(#SVGID_1_);}
</style>
<linearGradient id="SVGID_1_" gradientUnits="userSpaceOnUse" x1="13.8488" y1="271.7166" x2="530.8497" y2="271.7166">
	<stop  offset="0" style="stop-color:#ED2377"/>
	<stop  offset="1" style="stop-color:#4F3494"/>
</linearGradient>
<path class="st0" d="M445.65,165.66c-11.79,16.19-22.59,31.03-33.39,45.87c-42.46,58.35-84.9,116.71-127.39,175.03
	c-6.69,9.18-8.22,9.24-15.25,0.66c-37.63-45.87-75.25-91.75-112.79-137.7c-8.96-10.96-8.81-12.55-0.37-23.98
	c8.02-10.87,15.91-21.84,23.97-32.68c6.32-8.51,8-8.53,14.67-0.38c23.99,29.34,47.95,58.71,71.95,88.05
	c2.06,2.52,4.33,4.87,7.46,8.38c10.34-13.89,20.4-27.14,30.19-40.59c40.91-56.2,81.73-112.47,122.63-168.69
	c6.37-8.75,9.52-9.04,18.21-0.99c48.58,44.94,78.37,99.78,84.07,166.1c8.87,103.17-29.72,185.23-115.13,243.35
	c-120.22,81.8-289.88,42.38-363.76-83C-13.63,295.92,7.92,158.11,102.36,76.24c49.9-43.26,108.35-64.22,174.12-63.76
	c36.93,0.26,72.37,8.78,106.06,24.35c7.01,3.24,8.08,6.95,3.83,12.89c-6.33,8.84-13.08,17.42-18.87,26.6
	c-5.55,8.79-12.05,9.13-20.99,5.61c-32.18-12.68-65.57-16.79-99.88-12.05C158.37,82.06,90.62,146.04,73.25,233.39
	C52.2,339.24,121.99,446.43,226.87,469.32c117.48,25.64,226.92-48.49,246.43-167.38c7.45-45.38-0.45-88.45-22.63-128.81
	C449.59,171.17,448.18,169.4,445.65,165.66z"/>
</svg>
